<?xml version="1.0" encoding="UTF-8" standalone="no"?>
<!-- Created with Inkscape (http://www.inkscape.org/) -->

<svg
   xmlns:dc="http://purl.org/dc/elements/1.1/"
   xmlns:cc="http://creativecommons.org/ns#"
   xmlns:rdf="http://www.w3.org/1999/02/22-rdf-syntax-ns#"
   xmlns:svg="http://www.w3.org/2000/svg"
   xmlns="http://www.w3.org/2000/svg"
   xmlns:sodipodi="http://sodipodi.sourceforge.net/DTD/sodipodi-0.dtd"
   xmlns:inkscape="http://www.inkscape.org/namespaces/inkscape"
   width="210mm"
   height="297mm"
   id="svg3771"
   version="1.1"
   inkscape:version="0.48.3.1 r9886"
   sodipodi:docname="finish_flag.svg">
  <defs
     id="defs3773">
    <clipPath
       clipPathUnits="userSpaceOnUse"
       id="clipPath4127">
      <g
         id="g4129"
         transform="translate(0,2.6171874e-6)"
         clip-path="none">
        <path
           style="fill:none;stroke:#000000;stroke-width:1px;stroke-linecap:butt;stroke-linejoin:miter;stroke-opacity:1"
           d="M 320,152.36218 320,312.36218 340,312.36218 340,152.36218 360,152.36218 360,312.36218 380,312.36218 380,152.36218 400,152.36218 400,312.36218 420,312.36218 420,152.36218 440,152.36218 440,312.36218 460,312.36218 460,152.36218 480,152.36218 480,312.36218 320,312.36218 320,292.36218 480,292.36218 480,272.36218 320,272.36218 320,252.36218 480,252.36218 480,232.36218 320,232.36218 320,212.36218 480,212.36218 480,192.36218 320,192.36218 320,172.36218 480,172.36218 480,152.36218 z"
           id="path4131"
           inkscape:connector-curvature="0" />
        <path
           style="fill:#000000;fill-opacity:1;stroke:#515151;stroke-width:0.71428573;stroke-linejoin:round;stroke-miterlimit:4;stroke-opacity:1;stroke-dasharray:none"
           d="M 321.1225,162.41316 321.1225,153.48458 330.05107,153.48458 338.97964,153.48458 338.97964,162.41316 338.97964,171.34173 330.05107,171.34173 321.1225,171.34173 321.1225,162.41316 z"
           id="path4133"
           inkscape:connector-curvature="0" />
        <path
           style="fill:#000000;fill-opacity:1;stroke:#515151;stroke-width:0.71428573;stroke-linejoin:round;stroke-miterlimit:4;stroke-opacity:1;stroke-dasharray:none"
           d="M 341.1225,182.41316 341.1225,173.48458 350.05107,173.48458 358.97964,173.48458 358.97964,182.41316 358.97964,191.34173 350.05107,191.34173 341.1225,191.34173 341.1225,182.41316 z"
           id="path4135"
           inkscape:connector-curvature="0" />
        <path
           style="fill:#000000;fill-opacity:1;stroke:#515151;stroke-width:0.71428573;stroke-linejoin:round;stroke-miterlimit:4;stroke-opacity:1;stroke-dasharray:none"
           d="M 361.1225,202.41316 361.1225,193.48458 370.05107,193.48458 378.97964,193.48458 378.97964,202.41316 378.97964,211.34173 370.05107,211.34173 361.1225,211.34173 361.1225,202.41316 z"
           id="path4137"
           inkscape:connector-curvature="0" />
        <path
           style="fill:#000000;fill-opacity:1;stroke:#515151;stroke-width:0.71428573;stroke-linejoin:round;stroke-miterlimit:4;stroke-opacity:1;stroke-dasharray:none"
           d="M 381.1225,222.41316 381.1225,213.48458 390.05107,213.48458 398.97964,213.48458 398.97964,222.41316 398.97964,231.34173 390.05107,231.34173 381.1225,231.34173 381.1225,222.41316 z"
           id="path4139"
           inkscape:connector-curvature="0" />
        <path
           style="fill:#000000;fill-opacity:1;stroke:#515151;stroke-width:0.71428573;stroke-linejoin:round;stroke-miterlimit:4;stroke-opacity:1;stroke-dasharray:none"
           d="M 401.1225,242.41316 401.1225,233.48458 410.05107,233.48458 418.97964,233.48458 418.97964,242.41316 418.97964,251.34173 410.05107,251.34173 401.1225,251.34173 401.1225,242.41316 z"
           id="path4141"
           inkscape:connector-curvature="0" />
        <path
           style="fill:#000000;fill-opacity:1;stroke:#515151;stroke-width:0.71428573;stroke-linejoin:round;stroke-miterlimit:4;stroke-opacity:1;stroke-dasharray:none"
           d="M 421.1225,262.41316 421.1225,253.48458 430.05107,253.48458 438.97964,253.48458 438.97964,262.41316 438.97964,271.34173 430.05107,271.34173 421.1225,271.34173 421.1225,262.41316 z"
           id="path4143"
           inkscape:connector-curvature="0" />
        <path
           style="fill:#000000;fill-opacity:1;stroke:#515151;stroke-width:0.71428573;stroke-linejoin:round;stroke-miterlimit:4;stroke-opacity:1;stroke-dasharray:none"
           d="M 441.1225,282.41316 441.1225,273.48458 450.05107,273.48458 458.97964,273.48458 458.97964,282.41316 458.97964,291.34173 450.05107,291.34173 441.1225,291.34173 441.1225,282.41316 z"
           id="path4145"
           inkscape:connector-curvature="0" />
        <path
           style="fill:#000000;fill-opacity:1;stroke:#515151;stroke-width:0.71428573;stroke-linejoin:round;stroke-miterlimit:4;stroke-opacity:1;stroke-dasharray:none"
           d="M 461.1225,302.41316 461.1225,293.48458 470.05107,293.48458 478.97964,293.48458 478.97964,302.41316 478.97964,311.34173 470.05107,311.34173 461.1225,311.34173 461.1225,302.41316 z"
           id="path4147"
           inkscape:connector-curvature="0" />
        <path
           style="fill:#000000;fill-opacity:1;stroke:#515151;stroke-width:0.71428573;stroke-linejoin:round;stroke-miterlimit:4;stroke-opacity:1;stroke-dasharray:none"
           d="M 361.1225,162.41316 361.1225,153.48458 370.05107,153.48458 378.97964,153.48458 378.97964,162.41316 378.97964,171.34173 370.05107,171.34173 361.1225,171.34173 361.1225,162.41316 z"
           id="path4149"
           inkscape:connector-curvature="0" />
        <path
           style="fill:#000000;fill-opacity:1;stroke:#515151;stroke-width:0.71428573;stroke-linejoin:round;stroke-miterlimit:4;stroke-opacity:1;stroke-dasharray:none"
           d="M 381.1225,182.41316 381.1225,173.48458 390.05107,173.48458 398.97964,173.48458 398.97964,182.41316 398.97964,191.34173 390.05107,191.34173 381.1225,191.34173 381.1225,182.41316 z"
           id="path4151"
           inkscape:connector-curvature="0" />
        <path
           style="fill:#000000;fill-opacity:1;stroke:#515151;stroke-width:0.71428573;stroke-linejoin:round;stroke-miterlimit:4;stroke-opacity:1;stroke-dasharray:none"
           d="M 401.1225,202.41316 401.1225,193.48458 410.05107,193.48458 418.97964,193.48458 418.97964,202.41316 418.97964,211.34173 410.05107,211.34173 401.1225,211.34173 401.1225,202.41316 z"
           id="path4153"
           inkscape:connector-curvature="0" />
        <path
           style="fill:#000000;fill-opacity:1;stroke:#515151;stroke-width:0.71428573;stroke-linejoin:round;stroke-miterlimit:4;stroke-opacity:1;stroke-dasharray:none"
           d="M 421.1225,222.41316 421.1225,213.48458 430.05107,213.48458 438.97964,213.48458 438.97964,222.41316 438.97964,231.34173 430.05107,231.34173 421.1225,231.34173 421.1225,222.41316 z"
           id="path4155"
           inkscape:connector-curvature="0" />
        <path
           style="fill:#000000;fill-opacity:1;stroke:#515151;stroke-width:0.71428573;stroke-linejoin:round;stroke-miterlimit:4;stroke-opacity:1;stroke-dasharray:none"
           d="M 421.1225,182.41316 421.1225,173.48458 430.05107,173.48458 438.97964,173.48458 438.97964,182.41316 438.97964,191.34173 430.05107,191.34173 421.1225,191.34173 421.1225,182.41316 z"
           id="path4157"
           inkscape:connector-curvature="0" />
        <path
           style="fill:#000000;fill-opacity:1;stroke:#515151;stroke-width:0.71428573;stroke-linejoin:round;stroke-miterlimit:4;stroke-opacity:1;stroke-dasharray:none"
           d="M 441.1225,162.41316 441.1225,153.48458 450.05107,153.48458 458.97964,153.48458 458.97964,162.41316 458.97964,171.34173 450.05107,171.34173 441.1225,171.34173 441.1225,162.41316 z"
           id="path4159"
           inkscape:connector-curvature="0" />
        <path
           style="fill:#000000;fill-opacity:1;stroke:#515151;stroke-width:0.71428573;stroke-linejoin:round;stroke-miterlimit:4;stroke-opacity:1;stroke-dasharray:none"
           d="M 461.1225,182.41316 461.1225,173.48458 470.05107,173.48458 478.97964,173.48458 478.97964,182.41316 478.97964,191.34173 470.05107,191.34173 461.1225,191.34173 461.1225,182.41316 z"
           id="path4161"
           inkscape:connector-curvature="0" />
        <path
           style="fill:#000000;fill-opacity:1;stroke:#515151;stroke-width:0.71428573;stroke-linejoin:round;stroke-miterlimit:4;stroke-opacity:1;stroke-dasharray:none"
           d="M 441.1225,202.41316 441.1225,193.48458 450.05107,193.48458 458.97964,193.48458 458.97964,202.41316 458.97964,211.34173 450.05107,211.34173 441.1225,211.34173 441.1225,202.41316 z"
           id="path4163"
           inkscape:connector-curvature="0" />
        <path
           style="fill:#000000;fill-opacity:1;stroke:#515151;stroke-width:0.71428573;stroke-linejoin:round;stroke-miterlimit:4;stroke-opacity:1;stroke-dasharray:none"
           d="M 461.1225,222.41316 461.1225,213.48458 470.05107,213.48458 478.97964,213.48458 478.97964,222.41316 478.97964,231.34173 470.05107,231.34173 461.1225,231.34173 461.1225,222.41316 z"
           id="path4165"
           inkscape:connector-curvature="0" />
        <path
           style="fill:#000000;fill-opacity:1;stroke:#515151;stroke-width:0.71428573;stroke-linejoin:round;stroke-miterlimit:4;stroke-opacity:1;stroke-dasharray:none"
           d="M 441.1225,242.41316 441.1225,233.48458 450.05107,233.48458 458.97964,233.48458 458.97964,242.41316 458.97964,251.34173 450.05107,251.34173 441.1225,251.34173 441.1225,242.41316 z"
           id="path4167"
           inkscape:connector-curvature="0" />
        <path
           style="fill:#000000;fill-opacity:1;stroke:#515151;stroke-width:0.71428573;stroke-linejoin:round;stroke-miterlimit:4;stroke-opacity:1;stroke-dasharray:none"
           d="M 461.1225,262.41316 461.1225,253.48458 470.05107,253.48458 478.97964,253.48458 478.97964,262.41316 478.97964,271.34173 470.05107,271.34173 461.1225,271.34173 461.1225,262.41316 z"
           id="path4169"
           inkscape:connector-curvature="0" />
        <path
           style="fill:#000000;fill-opacity:1;stroke:#515151;stroke-width:0.71428573;stroke-linejoin:round;stroke-miterlimit:4;stroke-opacity:1;stroke-dasharray:none"
           d="M 421.1225,302.41316 421.1225,293.48458 430.05107,293.48458 438.97964,293.48458 438.97964,302.41316 438.97964,311.34173 430.05107,311.34173 421.1225,311.34173 421.1225,302.41316 z"
           id="path4171"
           inkscape:connector-curvature="0" />
        <path
           style="fill:#000000;fill-opacity:1;stroke:#515151;stroke-width:0.71428573;stroke-linejoin:round;stroke-miterlimit:4;stroke-opacity:1;stroke-dasharray:none"
           d="M 401.1225,282.41316 401.1225,273.48458 410.05107,273.48458 418.97964,273.48458 418.97964,282.41316 418.97964,291.34173 410.05107,291.34173 401.1225,291.34173 401.1225,282.41316 z"
           id="path4173"
           inkscape:connector-curvature="0" />
        <path
           style="fill:#000000;fill-opacity:1;stroke:#515151;stroke-width:0.71428573;stroke-linejoin:round;stroke-miterlimit:4;stroke-opacity:1;stroke-dasharray:none"
           d="M 381.1225,302.41316 381.1225,293.48458 390.05107,293.48458 398.97964,293.48458 398.97964,302.41316 398.97964,311.34173 390.05107,311.34173 381.1225,311.34173 381.1225,302.41316 z"
           id="path4175"
           inkscape:connector-curvature="0" />
        <path
           style="fill:#000000;fill-opacity:1;stroke:#515151;stroke-width:0.71428573;stroke-linejoin:round;stroke-miterlimit:4;stroke-opacity:1;stroke-dasharray:none"
           d="M 361.1225,282.41316 361.1225,273.48458 370.05107,273.48458 378.97964,273.48458 378.97964,282.41316 378.97964,291.34173 370.05107,291.34173 361.1225,291.34173 361.1225,282.41316 z"
           id="path4177"
           inkscape:connector-curvature="0" />
        <path
           style="fill:#000000;fill-opacity:1;stroke:#515151;stroke-width:0.71428573;stroke-linejoin:round;stroke-miterlimit:4;stroke-opacity:1;stroke-dasharray:none"
           d="M 381.1225,262.41316 381.1225,253.48458 390.05107,253.48458 398.97964,253.48458 398.97964,262.41316 398.97964,271.34173 390.05107,271.34173 381.1225,271.34173 381.1225,262.41316 z"
           id="path4179"
           inkscape:connector-curvature="0" />
        <path
           style="fill:#000000;fill-opacity:1;stroke:#515151;stroke-width:0.71428573;stroke-linejoin:round;stroke-miterlimit:4;stroke-opacity:1;stroke-dasharray:none"
           d="M 361.1225,242.41316 361.1225,233.48458 370.05107,233.48458 378.97964,233.48458 378.97964,242.41316 378.97964,251.34173 370.05107,251.34173 361.1225,251.34173 361.1225,242.41316 z"
           id="path4181"
           inkscape:connector-curvature="0" />
        <path
           style="fill:#000000;fill-opacity:1;stroke:#515151;stroke-width:0.71428573;stroke-linejoin:round;stroke-miterlimit:4;stroke-opacity:1;stroke-dasharray:none"
           d="M 341.1225,262.41316 341.1225,253.48458 350.05107,253.48458 358.97964,253.48458 358.97964,262.41316 358.97964,271.34173 350.05107,271.34173 341.1225,271.34173 341.1225,262.41316 z"
           id="path4183"
           inkscape:connector-curvature="0" />
        <path
           style="fill:#000000;fill-opacity:1;stroke:#515151;stroke-width:0.71428573;stroke-linejoin:round;stroke-miterlimit:4;stroke-opacity:1;stroke-dasharray:none"
           d="M 321.1225,282.41316 321.1225,273.48458 330.05107,273.48458 338.97964,273.48458 338.97964,282.41316 338.97964,291.34173 330.05107,291.34173 321.1225,291.34173 321.1225,282.41316 z"
           id="path4185"
           inkscape:connector-curvature="0" />
        <path
           style="fill:#000000;fill-opacity:1;stroke:#515151;stroke-width:0.71428573;stroke-linejoin:round;stroke-miterlimit:4;stroke-opacity:1;stroke-dasharray:none"
           d="M 341.1225,302.41316 341.1225,293.48458 350.05107,293.48458 358.97964,293.48458 358.97964,302.41316 358.97964,311.34173 350.05107,311.34173 341.1225,311.34173 341.1225,302.41316 z"
           id="path4187"
           inkscape:connector-curvature="0" />
        <path
           style="fill:#000000;fill-opacity:1;stroke:#515151;stroke-width:0.71428573;stroke-linejoin:round;stroke-miterlimit:4;stroke-opacity:1;stroke-dasharray:none"
           d="M 321.1225,242.41316 321.1225,233.48458 330.05107,233.48458 338.97964,233.48458 338.97964,242.41316 338.97964,251.34173 330.05107,251.34173 321.1225,251.34173 321.1225,242.41316 z"
           id="path4189"
           inkscape:connector-curvature="0" />
        <path
           style="fill:#000000;fill-opacity:1;stroke:#515151;stroke-width:0.71428573;stroke-linejoin:round;stroke-miterlimit:4;stroke-opacity:1;stroke-dasharray:none"
           d="M 341.1225,222.41316 341.1225,213.48458 350.05107,213.48458 358.97964,213.48458 358.97964,222.41316 358.97964,231.34173 350.05107,231.34173 341.1225,231.34173 341.1225,222.41316 z"
           id="path4191"
           inkscape:connector-curvature="0" />
        <path
           style="fill:#000000;fill-opacity:1;stroke:#515151;stroke-width:0.71428573;stroke-linejoin:round;stroke-miterlimit:4;stroke-opacity:1;stroke-dasharray:none"
           d="M 321.1225,202.41316 321.1225,193.48458 330.05107,193.48458 338.97964,193.48458 338.97964,202.41316 338.97964,211.34173 330.05107,211.34173 321.1225,211.34173 321.1225,202.41316 z"
           id="path4193"
           inkscape:connector-curvature="0" />
        <path
           style="fill:#000000;fill-opacity:1;stroke:#515151;stroke-width:0.71428573;stroke-linejoin:round;stroke-miterlimit:4;stroke-opacity:1;stroke-dasharray:none"
           d="M 401.1225,162.41316 401.1225,153.48458 410.05107,153.48458 418.97964,153.48458 418.97964,162.41316 418.97964,171.34173 410.05107,171.34173 401.1225,171.34173 401.1225,162.41316 z"
           id="path4195"
           inkscape:connector-curvature="0" />
      </g>
    </clipPath>
  </defs>
  <sodipodi:namedview
     id="base"
     pagecolor="#ffffff"
     bordercolor="#666666"
     borderopacity="1.0"
     inkscape:pageopacity="0.0"
     inkscape:pageshadow="2"
     inkscape:zoom="1.979899"
     inkscape:cx="322.06571"
     inkscape:cy="788.76117"
     inkscape:document-units="px"
     inkscape:current-layer="layer1"
     showgrid="true"
     inkscape:window-width="789"
     inkscape:window-height="747"
     inkscape:window-x="0"
     inkscape:window-y="19"
     inkscape:window-maximized="0">
    <inkscape:grid
       type="xygrid"
       id="grid3788" />
  </sodipodi:namedview>
  <metadata
     id="metadata3776">
    <rdf:RDF>
      <cc:Work
         rdf:about="">
        <dc:format>image/svg+xml</dc:format>
        <dc:type
           rdf:resource="http://purl.org/dc/dcmitype/StillImage" />
        <dc:title></dc:title>
      </cc:Work>
    </rdf:RDF>
  </metadata>
  <g
     inkscape:label="Calque 1"
     inkscape:groupmode="layer"
     id="layer1">
    <path
       style="fill:#ffffff;stroke:#000000;stroke-width:1px;stroke-linecap:butt;stroke-linejoin:miter;stroke-opacity:1;fill-opacity:1"
       d="M 200,312.6479 360,232.6479 300,197.6479 280,187.6479 260,177.6479 200,152.6479 z"
       id="path4199"
       inkscape:connector-curvature="0"
       sodipodi:nodetypes="ccccccc" />
    <rect
       style="fill:#000000;fill-opacity:1;stroke:none"
       id="rect2985"
       width="14.285714"
       height="348.57144"
       x="185.71428"
       y="143.79074" />
    <path
       style="fill:#000000;fill-opacity:1;stroke:none;stroke-width:0.99964476000000002;stroke-linejoin:round;stroke-miterlimit:4;stroke-opacity:0"
       inkscape:transform-center-x="-26.666666"
       d="M 480,232.36218 400,272.36218 320,312.36219 320,229.27932 320,152.36218 400,186.19648 z"
       id="path2989"
       inkscape:connector-curvature="0"
       sodipodi:nodetypes="ccccccc"
       clip-path="url(#clipPath4127)"
       mask="none"
       transform="translate(-120,2.6171874e-6)" />
  </g>
</svg>
