<?xml version="1.0" encoding="UTF-8" standalone="no"?>
<!-- Created with Inkscape (http://www.inkscape.org/) -->

<svg
   xmlns:dc="http://purl.org/dc/elements/1.1/"
   xmlns:cc="http://creativecommons.org/ns#"
   xmlns:rdf="http://www.w3.org/1999/02/22-rdf-syntax-ns#"
   xmlns:svg="http://www.w3.org/2000/svg"
   xmlns="http://www.w3.org/2000/svg"
   xmlns:xlink="http://www.w3.org/1999/xlink"
   xmlns:sodipodi="http://sodipodi.sourceforge.net/DTD/sodipodi-0.dtd"
   xmlns:inkscape="http://www.inkscape.org/namespaces/inkscape"
   width="210mm"
   height="297mm"
   id="svg2"
   version="1.1"
   inkscape:version="0.48.3.1 r9886"
   sodipodi:docname="spaceship.svg"
   inkscape:export-filename="/home/max/git/Spaceship-android/assets/images/spaceship.png"
   inkscape:export-xdpi="7.3293872"
   inkscape:export-ydpi="7.3293872">
  <defs
     id="defs4">
    <linearGradient
       id="linearGradient3781">
      <stop
         style="stop-color:#9cb3cc;stop-opacity:1;"
         offset="0"
         id="stop3783" />
      <stop
         style="stop-color:#829fbe;stop-opacity:1;"
         offset="1"
         id="stop3785" />
    </linearGradient>
    <linearGradient
       id="linearGradient3773">
      <stop
         style="stop-color:#829fbe;stop-opacity:1;"
         offset="0"
         id="stop3775" />
      <stop
         style="stop-color:#8fa8c5;stop-opacity:1;"
         offset="1"
         id="stop3777" />
    </linearGradient>
    <linearGradient
       inkscape:collect="always"
       xlink:href="#linearGradient3773"
       id="linearGradient3779"
       x1="161.79623"
       y1="297.15283"
       x2="208.15678"
       y2="297.15283"
       gradientUnits="userSpaceOnUse" />
    <linearGradient
       inkscape:collect="always"
       xlink:href="#linearGradient3781"
       id="linearGradient3787"
       x1="209.69053"
       y1="297.1216"
       x2="261.7282"
       y2="297.1216"
       gradientUnits="userSpaceOnUse" />
  </defs>
  <sodipodi:namedview
     id="base"
     pagecolor="#ffffff"
     bordercolor="#666666"
     borderopacity="1.0"
     inkscape:pageopacity="0.0"
     inkscape:pageshadow="2"
     inkscape:zoom="1"
     inkscape:cx="197.33593"
     inkscape:cy="792.05275"
     inkscape:document-units="px"
     inkscape:current-layer="layer1"
     showgrid="false"
     inkscape:window-width="1364"
     inkscape:window-height="747"
     inkscape:window-x="0"
     inkscape:window-y="19"
     inkscape:window-maximized="0" />
  <metadata
     id="metadata7">
    <rdf:RDF>
      <cc:Work
         rdf:about="">
        <dc:format>image/svg+xml</dc:format>
        <dc:type
           rdf:resource="http://purl.org/dc/dcmitype/StillImage" />
        <dc:title></dc:title>
      </cc:Work>
    </rdf:RDF>
  </metadata>
  <g
     inkscape:label="Calque 1"
     inkscape:groupmode="layer"
     id="layer1">
    <path
       style="fill:#829ebe;fill-opacity:1;stroke:#ffffff;stroke-width:1px;stroke-linecap:butt;stroke-linejoin:miter;stroke-opacity:1"
       d="m 161.86425,374.82013 -69.940368,24.98351 c 0,0 5.412109,-29.0505 19.706478,-46.10534 14.29438,-17.05484 53.98653,-64.0398 53.98653,-64.0398"
       id="path2989"
       inkscape:connector-curvature="0"
       sodipodi:nodetypes="cczc" />
    <path
       sodipodi:nodetypes="cczc"
       inkscape:connector-curvature="0"
       id="path2991"
       d="m 262.07068,375.39419 68.69037,23.23351 c 0,0 -4.28711,-27.9255 -18.58148,-44.98034 -14.29438,-17.05484 -56.07319,-63.6697 -56.07319,-63.6697"
       style="fill:#829ebe;fill-opacity:1;stroke:#ffffff;stroke-width:1px;stroke-linecap:butt;stroke-linejoin:miter;stroke-opacity:1" />
    <path
       style="fill:#cccccc;stroke:#000000;stroke-width:1px;stroke-linecap:butt;stroke-linejoin:miter;stroke-opacity:1;fill-opacity:1"
       d="m 147.85714,380.57647 5.35714,4.99999 -50,17.14286 1.42858,-7.5 z"
       id="path2993"
       inkscape:connector-curvature="0"
       sodipodi:nodetypes="ccccc" />
    <path
       sodipodi:nodetypes="ccccc"
       inkscape:connector-curvature="0"
       id="path2995"
       d="m 275.71428,380.57648 -5.35714,4.99999 50,17.14286 -1.42858,-7.5 z"
       style="fill:#cccccc;stroke:#000000;stroke-width:1px;stroke-linecap:butt;stroke-linejoin:miter;stroke-opacity:1" />
    <path
       style="fill:none;stroke:none;stroke-width:1px;stroke-linecap:butt;stroke-linejoin:miter;stroke-opacity:1"
       d="m 262.8922,376.06505 c 0,0 -19.73118,-0.60792 -28.66549,0.96117 -8.9343,1.5691 -24.94035,8.45338 -24.94035,8.45338 0,0 -14.62909,-6.2832 -23.72934,-7.99622 -7.12378,-1.34098 -24.94277,-1.16579 -24.94277,-1.16579 l 5.20922,-97.64815 43.36476,-71.67006 46.81365,72.12438 z"
       id="path2997"
       inkscape:connector-curvature="0"
       sodipodi:nodetypes="cscsccccc" />
    <path
       style="fill:url(#linearGradient3787);fill-opacity:1;stroke:#000000;stroke-opacity:1"
       d="m 209.31375,297.37486 c -0.28971,-47.5658 -0.27855,-87.47694 -0.0992,-87.65631 0.40497,-0.40497 45.44214,68.76806 45.82244,70.38117 0.30275,1.28418 6.69118,90.16395 6.69118,93.09185 l 0,1.81597 -13.03571,0.35795 c -14.30292,0.39274 -18.72458,1.22848 -31.16863,5.89125 -3.68739,1.38165 -8.16291,3.14345 -8.248,3.14345 -0.0851,0 0.3276,-39.45953 0.0379,-87.02533 z"
       id="path3001"
       inkscape:connector-curvature="0"
       sodipodi:nodetypes="scsscssss" />
    <path
       style="fill:url(#linearGradient3779);fill-opacity:1;stroke:#000000;stroke-opacity:1"
       d="m 196.85066,380.07547 c -9.91222,-3.39251 -10.62112,-3.52751 -22.5,-4.28492 -6.74592,-0.43012 -12.38883,-0.88984 -12.5398,-1.0216 -0.15096,-0.13176 0.8839,-21.70062 2.2997,-47.93081 l 2.57417,-47.69126 18.73648,-31.08188 c 10.30507,-17.09503 19.63628,-32.51088 20.73602,-34.25743 l 2.18895,-3.49123 0.0537,86.85093 c 0.0293,47.40885 0.39973,87.37945 0.10509,87.32707 -0.29464,-0.0524 -6.0252,-2.4923 -11.65428,-4.41887 z"
       id="path3003"
       inkscape:connector-curvature="0"
       sodipodi:nodetypes="cscscsscscc" />
  </g>
</svg>
